<?xml version="1.0" encoding="UTF-8"?>
<!-- Generator: Adobe Illustrator 15.0.0, SVG Export Plug-In . SVG Version: 6.00 Build 0)  -->
<!DOCTYPE svg PUBLIC "-//W3C//DTD SVG 1.1//EN" "http://www.w3.org/Graphics/SVG/1.1/DTD/svg11.dtd">
<svg version="1.1" id="Layer_1" xmlns="http://www.w3.org/2000/svg" xmlns:xlink="http://www.w3.org/1999/xlink" x="0px" y="0px" width="568px" height="414px" viewBox="0 0 568 414" enable-background="new 0 0 568 414" xml:space="preserve">
<g>
	<path fill="#C4D4E7" d="M507.268,233.768c-0.4-0.398-0.939-0.625-1.506-0.625c-0.562-0.004-1.105,0.227-1.504,0.625l-9.219,9.223   c-0.801,0.799-2.213,0.799-3.01,0l-9.227-9.223c-0.398-0.398-0.939-0.623-1.504-0.623c-0.564-0.002-1.107,0.225-1.506,0.623   l-8.162,8.16c-0.607,0.609-1.525,0.791-2.318,0.459c-0.797-0.326-1.312-1.104-1.312-1.963V176c0-25.16,18.684-46.031,42.906-49.488   C489.473,53.484,421.867,0,342.008,0c-66.959,0-125.289,37.576-155.033,92.742C207.336,112.717,220,140.514,220,171.221v141.732   c0,1.889-1.148,3.6-2.891,4.318c-1.758,0.727-3.762,0.328-5.1-1.016l-17.955-17.947c-0.879-0.877-2.068-1.369-3.309-1.369   c-1.238-0.006-2.434,0.492-3.312,1.369l-20.291,20.293c-0.336,0.336-0.729,0.594-1.141,0.812l0.002,83.357   c0,3.021,1.812,5.758,4.613,6.91c2.793,1.168,6.025,0.523,8.164-1.617l28.734-28.725c1.402-1.404,3.312-2.199,5.297-2.191   c1.984,0,3.891,0.787,5.293,2.191l32.477,32.469c2.809,2.809,7.777,2.809,10.594,0l32.449-32.469   c1.41-1.404,3.32-2.207,5.301-2.199c1.988,0,3.889,0.795,5.297,2.199l32.488,32.469c2.93,2.922,7.664,2.922,10.586,0l32.477-32.469   c1.406-1.404,3.312-2.199,5.297-2.191c1.984,0,3.891,0.787,5.297,2.191l32.469,32.469c1.41,1.404,3.309,2.191,5.297,2.191   c1.98,0,3.895-0.787,5.297-2.191l32.465-32.469c1.406-1.404,3.316-2.199,5.301-2.191c1.984,0,3.887,0.787,5.293,2.191   l28.727,28.717c2.141,2.148,5.352,2.785,8.16,1.625c2.789-1.152,4.625-3.889,4.625-6.91V243.613c-0.543,0-1.086-0.207-1.504-0.623   L507.268,233.768z M294.348,204.426c-16.115,0-29.18-13.064-29.18-29.18s13.064-29.18,29.18-29.18   c16.117,0,29.182,13.064,29.182,29.18S310.465,204.426,294.348,204.426z M389.652,204.426c-16.115,0-29.18-13.064-29.18-29.18   s13.064-29.18,29.18-29.18c16.117,0,29.18,13.064,29.18,29.18S405.77,204.426,389.652,204.426z"/>
	<path fill="#DBE3EC" d="M186.975,92.742c-19.855-19.479-47.029-31.521-76.971-31.521C49.34,61.221,0,110.568,0,171.221v141.732   c0,1.889,1.135,3.6,2.887,4.318c1.744,0.73,3.764,0.328,5.102-1.012l17.957-17.951c0.877-0.877,2.072-1.375,3.312-1.369   c1.24,0,2.43,0.492,3.309,1.369l20.297,20.293c1.754,1.756,4.861,1.756,6.621,0l20.281-20.293c0.879-0.877,2.074-1.381,3.312-1.375   c1.242,0,2.43,0.498,3.309,1.375l20.307,20.293c1.83,1.826,4.791,1.826,6.617,0l20.297-20.293c0.879-0.877,2.072-1.375,3.311-1.369   c1.242,0,2.432,0.492,3.312,1.369l20.293,20.293c0.879,0.877,2.066,1.369,3.309,1.369c0.766,0,1.504-0.207,2.17-0.557L166,176   C166,145.9,173.602,117.545,186.975,92.742z M80.217,188.986c-10.072,0-18.236-8.164-18.236-18.236s8.164-18.238,18.236-18.238   s18.238,8.166,18.238,18.238S90.289,188.986,80.217,188.986z M139.781,188.986c-10.07,0-18.236-8.164-18.236-18.236   s8.166-18.238,18.236-18.238c10.074,0,18.238,8.166,18.238,18.238S149.855,188.986,139.781,188.986z"/>
	<path fill="#BBCBDF" d="M187.434,298.309c0.879-0.877,2.074-1.375,3.312-1.369c1.24,0,2.43,0.492,3.309,1.369l17.955,17.947   c1.338,1.344,3.342,1.742,5.1,1.016c1.742-0.719,2.891-2.43,2.891-4.318V171.221c0-30.707-12.664-58.504-33.025-78.479   C173.602,117.545,166,145.9,166,176l0.002,143.414c0.412-0.219,0.805-0.477,1.141-0.812L187.434,298.309z"/>
	<path fill="#DBE3EC" d="M518.002,126c-2.408,0-4.775,0.182-7.096,0.512C515.516,142.219,518,158.824,518,176v67.613   c0.545,0,1.09-0.207,1.504-0.623l9.227-9.223c0.398-0.398,0.941-0.625,1.506-0.623c0.564,0,1.104,0.225,1.504,0.623l9.225,9.223   c0.4,0.398,0.939,0.623,1.504,0.623c0.562,0,1.105-0.225,1.506-0.623l9.223-9.223c0.398-0.398,0.943-0.625,1.506-0.623   c0.562,0,1.105,0.225,1.504,0.623l8.16,8.156c0.609,0.613,1.52,0.793,2.318,0.463c0.793-0.326,1.314-1.104,1.314-1.963V176   C568,148.432,545.568,126,518.002,126z M531.537,184.076c-4.578,0-8.289-3.711-8.289-8.289c0-4.58,3.711-8.291,8.289-8.291   s8.291,3.711,8.291,8.291C539.828,180.365,536.115,184.076,531.537,184.076z"/>
	<path fill="#BBCBDF" d="M510.906,126.512C486.684,129.969,468,150.84,468,176v64.424c0,0.859,0.516,1.637,1.312,1.963   c0.793,0.332,1.711,0.15,2.318-0.459l8.162-8.16c0.398-0.398,0.941-0.625,1.506-0.623c0.564,0,1.105,0.225,1.504,0.623l9.227,9.223   c0.797,0.799,2.209,0.799,3.01,0l9.219-9.223c0.398-0.398,0.941-0.629,1.504-0.625c0.566,0,1.105,0.227,1.506,0.625l9.229,9.223   c0.418,0.416,0.961,0.623,1.504,0.623V176C518,158.824,515.516,142.219,510.906,126.512z M504.463,184.076   c-4.58,0-8.291-3.711-8.291-8.289c0-4.58,3.711-8.291,8.291-8.291c4.578,0,8.289,3.711,8.289,8.291   C512.752,180.365,509.041,184.076,504.463,184.076z"/>
</g>
</svg>